<svg xmlns="http://www.w3.org/2000/svg" viewBox="0 0 128 128" fill="none">
    <defs>
        <linearGradient id="sky" x1="64" y1="4" x2="64" y2="124" gradientUnits="userSpaceOnUse">
            <stop stop-color="#314c60"/>
            <stop offset="1" stop-color="#182d3b"/>
        </linearGradient>
        <linearGradient id="sun" x1="64" y1="34" x2="64" y2="82" gradientUnits="userSpaceOnUse">
            <stop stop-color="#ffe8b2"/>
            <stop offset="1" stop-color="#e9a96d"/>
        </linearGradient>
    </defs>
    <rect x="4" y="4" width="120" height="120" rx="30" fill="url(#sky)"/>
    <path d="M18 72c17-10 28-10 46-1s30 7 46-3v39H18V72Z" fill="#263f4c"/>
    <circle cx="65" cy="58" r="24" fill="url(#sun)"/>
    <path d="M14 87h21V68l12-9 12 9v28H14V87Z" fill="#e3c59a" stroke="#172c3b" stroke-width="3" stroke-linejoin="round"/>
    <path d="M54 96V54h25v42H54Z" fill="#73928e" stroke="#172c3b" stroke-width="3" stroke-linejoin="round"/>
    <path d="m50 56 16-14 17 14H50Z" fill="#c98268" stroke="#172c3b" stroke-width="3" stroke-linejoin="round"/>
    <path d="M81 96V72l13-10 14 10v24H81Z" fill="#dfbf91" stroke="#172c3b" stroke-width="3" stroke-linejoin="round"/>
    <g fill="#fff0c4">
        <path d="M23 76h7v8h-7zM42 73h6v7h-6zM60 62h6v7h-6zM70 77h5v7h-5zM90 75h6v7h-6zM101 77h5v7h-5z"/>
    </g>
    <path d="M42 101c15-7 30-7 45-1 10 4 17 4 27 0" stroke="#e8bf7d" stroke-width="4" stroke-linecap="round"/>
    <g transform="translate(83 13) rotate(11)">
        <rect width="29" height="29" rx="8" fill="#fff2d5" stroke="#273d4c" stroke-width="2.5"/>
        <g fill="#314b5c">
            <circle cx="8.5" cy="8.5" r="2.3"/><circle cx="20.5" cy="8.5" r="2.3"/>
            <circle cx="14.5" cy="14.5" r="2.3"/><circle cx="8.5" cy="20.5" r="2.3"/><circle cx="20.5" cy="20.5" r="2.3"/>
        </g>
    </g>
    <path d="M4 82c11-6 18-8 27-7" stroke="#fff0c4" stroke-opacity=".5" stroke-width="2" stroke-linecap="round"/>
    <rect x="4.75" y="4.75" width="118.5" height="118.5" rx="29.25" stroke="#efd3a2" stroke-opacity=".48" stroke-width="1.5"/>
</svg>
