<svg xmlns="http://www.w3.org/2000/svg">
    <symbol id="radio" viewBox="0 0 24 24">
        <path d="M5 10.5 19 6v12H5z" fill="none" stroke="currentColor" stroke-linejoin="round" stroke-width="1.7"/>
        <path d="m7 7 10-4M12 6l4-4M9 14h.01M14 14h.01M18 13a6 6 0 0 0 3 5" fill="none" stroke="currentColor" stroke-linecap="round" stroke-width="1.7"/>
        <circle cx="9" cy="14" r="1.8" fill="none" stroke="currentColor" stroke-width="1.5"/>
    </symbol>
    <symbol id="build" viewBox="0 0 24 24">
        <path d="M3.5 20.5h17M6 20.5v-9l6-4 6 4v9M9 20.5v-5h6v5M3 8.5 11.8 3l3.1 2M14.7 3.8l2.2 2.3-2.3 2.2-2.2-2.2z" fill="none" stroke="currentColor" stroke-linecap="round" stroke-linejoin="round" stroke-width="1.7"/>
    </symbol>
    <symbol id="log" viewBox="0 0 24 24">
        <path d="M6 3.5h9l4 4v13H6zM15 3.5v4h4M9 12h7M9 15.5h7" fill="none" stroke="currentColor" stroke-linecap="round" stroke-linejoin="round" stroke-width="1.7"/>
    </symbol>
    <symbol id="restart" viewBox="0 0 24 24">
        <path d="M4.5 11a7.5 7.5 0 0 1 12.8-5.3L20 8.5M20 4.5v4h-4M19.5 13a7.5 7.5 0 0 1-12.8 5.3L4 15.5M4 19.5v-4h4" fill="none" stroke="currentColor" stroke-linecap="round" stroke-linejoin="round" stroke-width="1.8"/>
    </symbol>
    <symbol id="book" viewBox="0 0 24 24">
        <path d="M3.5 5.5c3.2-.9 6-.3 8.5 1.5v13c-2.5-1.8-5.3-2.4-8.5-1.5zM20.5 5.5c-3.2-.9-6-.3-8.5 1.5v13c2.5-1.8 5.3-2.4 8.5-1.5zM7 9h2M7 12h2M15 9h2M15 12h2" fill="none" stroke="currentColor" stroke-linecap="round" stroke-linejoin="round" stroke-width="1.6"/>
    </symbol>
    <symbol id="target" viewBox="0 0 24 24">
        <circle cx="12" cy="12" r="8.5" fill="none" stroke="currentColor" stroke-width="1.7"/>
        <circle cx="12" cy="12" r="4.5" fill="none" stroke="currentColor" stroke-width="1.7"/>
        <circle cx="12" cy="12" r="1.2" fill="currentColor"/>
    </symbol>
    <symbol id="dice" viewBox="0 0 24 24">
        <rect x="3.5" y="3.5" width="17" height="17" rx="4" fill="none" stroke="currentColor" stroke-width="1.7"/>
        <circle cx="8" cy="8" r="1.2" fill="currentColor"/><circle cx="16" cy="8" r="1.2" fill="currentColor"/>
        <circle cx="12" cy="12" r="1.2" fill="currentColor"/><circle cx="8" cy="16" r="1.2" fill="currentColor"/><circle cx="16" cy="16" r="1.2" fill="currentColor"/>
    </symbol>
    <symbol id="coin" viewBox="0 0 20 20">
        <circle cx="10" cy="10" r="8.5" fill="#e9b84f" stroke="#865b24" stroke-width="1.5"/>
        <circle cx="10" cy="10" r="6.1" fill="none" stroke="#f9e3a0" stroke-width="1"/>
        <path d="M11.8 6.5c-.5-.5-1.1-.7-1.9-.7-1.1 0-1.9.6-1.9 1.5 0 2.3 4.1 1.1 4.1 3.5 0 1-.9 1.8-2.2 1.8-.9 0-1.7-.3-2.3-.9M10 4.8v10.4" fill="none" stroke="#68471d" stroke-linecap="round" stroke-width="1.2"/>
    </symbol>
    <symbol id="startup" viewBox="0 0 24 24">
        <rect x="3.5" y="4" width="17" height="12.5" rx="1.8" fill="none" stroke="currentColor" stroke-width="1.6"/>
        <path d="M8 20h8M12 16.5V20M6.5 13l3.2-3 2.1 1.6 4.2-4" fill="none" stroke="currentColor" stroke-linecap="round" stroke-linejoin="round" stroke-width="1.6"/>
        <circle cx="16" cy="7.8" r="1" fill="currentColor"/>
    </symbol>
    <symbol id="loan" viewBox="0 0 24 24">
        <rect x="3.5" y="5" width="17" height="14" rx="2" fill="none" stroke="currentColor" stroke-width="1.6"/>
        <path d="M4 9h16M7 15h4" fill="none" stroke="currentColor" stroke-linecap="round" stroke-width="1.6"/>
        <circle cx="16.5" cy="14.5" r="2" fill="none" stroke="currentColor" stroke-width="1.3"/>
    </symbol>
    <symbol id="market" viewBox="0 0 24 24">
        <path d="M5 11v9h14v-9M3 9l2-5h14l2 5M3 9c0 1.4 1 2.3 2.3 2.3S7.5 10.4 7.5 9c0 1.4 1 2.3 2.3 2.3s2.3-.9 2.3-2.3c0 1.4 1 2.3 2.3 2.3s2.3-.9 2.3-2.3c0 1.4 1 2.3 2.3 2.3S21.3 10.4 21.3 9M9 20v-5h6v5" fill="none" stroke="currentColor" stroke-linecap="round" stroke-linejoin="round" stroke-width="1.5"/>
    </symbol>
    <symbol id="sequence" viewBox="0 0 24 24">
        <path d="M5 7h13l-3-3M19 7l-3 3M19 17H6l3 3M5 17l3-3M12 7v10" fill="none" stroke="currentColor" stroke-linecap="round" stroke-linejoin="round" stroke-width="1.7"/>
    </symbol>
    <symbol id="palette" viewBox="0 0 24 24">
        <path d="M12 3.5a8.5 8.5 0 1 0 0 17h1.2a2.2 2.2 0 0 0 1.5-3.8 1.4 1.4 0 0 1 .9-2.4h1.2a4.7 4.7 0 0 0 4.7-4.7c0-3.4-4.3-6.1-9.5-6.1z" fill="none" stroke="currentColor" stroke-linejoin="round" stroke-width="1.6"/>
        <circle cx="7.5" cy="11" r="1" fill="currentColor"/><circle cx="10" cy="7.5" r="1" fill="currentColor"/><circle cx="15" cy="7.5" r="1" fill="currentColor"/><circle cx="18" cy="11" r="1" fill="currentColor"/>
    </symbol>
    <symbol id="search" viewBox="0 0 24 24">
        <circle cx="10.5" cy="10.5" r="6.5" fill="none" stroke="currentColor" stroke-width="1.7"/>
        <path d="m15.5 15.5 5 5" fill="none" stroke="currentColor" stroke-linecap="round" stroke-width="1.9"/>
    </symbol>
    <symbol id="cards" viewBox="0 0 24 24">
        <path d="M7 4.5h12a2 2 0 0 1 2 2v12a2 2 0 0 1-2 2H7a2 2 0 0 1-2-2v-12a2 2 0 0 1 2-2z" fill="none" stroke="currentColor" stroke-width="1.6"/>
        <path d="M5 7H4a2 2 0 0 0-2 2v10a2 2 0 0 0 2 2h12M9 9h8M9 12h6" fill="none" stroke="currentColor" stroke-linecap="round" stroke-width="1.6"/>
    </symbol>
    <symbol id="chart" viewBox="0 0 24 24">
        <path d="M4 20V11h4v9M10 20V5h4v15M16 20v-8h4v8M2.5 20.5h19" fill="none" stroke="currentColor" stroke-linecap="round" stroke-linejoin="round" stroke-width="1.7"/>
    </symbol>
    <symbol id="trash" viewBox="0 0 24 24">
        <path d="M4.5 7h15M9 7V4.5h6V7m3.5 0-.8 13H6.3L5.5 7M10 10.5v6M14 10.5v6" fill="none" stroke="currentColor" stroke-linecap="round" stroke-linejoin="round" stroke-width="1.7"/>
    </symbol>
    <symbol id="phone" viewBox="0 0 24 24">
        <rect x="6" y="2.5" width="12" height="19" rx="2.5" fill="none" stroke="currentColor" stroke-width="1.7"/>
        <path d="M9.5 5.5h5M11.2 18.5h1.6" fill="none" stroke="currentColor" stroke-linecap="round" stroke-width="1.6"/>
    </symbol>
    <symbol id="warning" viewBox="0 0 24 24">
        <path d="M12 3.2 22 20.5H2z" fill="none" stroke="currentColor" stroke-linejoin="round" stroke-width="1.7"/>
        <path d="M12 9v5.2M12 17.5v.1" fill="none" stroke="currentColor" stroke-linecap="round" stroke-width="2"/>
    </symbol>
    <symbol id="info" viewBox="0 0 24 24">
        <circle cx="12" cy="12" r="9" fill="none" stroke="currentColor" stroke-width="1.7"/>
        <path d="M12 10.8v5.7" fill="none" stroke="currentColor" stroke-linecap="round" stroke-width="1.9"/>
        <circle cx="12" cy="7.4" r="1" fill="currentColor"/>
    </symbol>
    <symbol id="check" viewBox="0 0 24 24">
        <path d="m4.5 12.5 5 5 10-11" fill="none" stroke="currentColor" stroke-linecap="round" stroke-linejoin="round" stroke-width="2.2"/>
    </symbol>
</svg>
